<svg xmlns="http://www.w3.org/2000/svg" fill="none">
    <path
        d="M21.831 31.04H10.17c-5.078 0-9.21-4.131-9.21-9.209V10.17C.96 5.092 5.092.96 10.17.96h11.662c5.078 0 9.208 4.132 9.208 9.21v11.662c0 5.078-4.131 9.208-9.209 9.208zM10.17 3.213c-3.836 0-6.956 3.121-6.956 6.957v11.662c0 3.836 3.121 6.957 6.956 6.957h11.662a6.965 6.965 0 0 0 6.957-6.957V10.17a6.965 6.965 0 0 0-6.957-6.957H10.17z" />
    <path
        d="M16 23.61c-4.196 0-7.608-3.414-7.608-7.61 0-4.195 3.413-7.608 7.608-7.608s7.608 3.414 7.608 7.608c0 4.196-3.412 7.61-7.608 7.61zm0-12.912c-2.923 0-5.302 2.379-5.302 5.302s2.379 5.303 5.302 5.303c2.922 0 5.302-2.38 5.302-5.303s-2.38-5.302-5.302-5.302zM26.419 7.564a1.981 1.981 0 1 1-3.962 0 1.981 1.981 0 0 1 3.962 0z" />
</svg>