<svg xmlns="http://www.w3.org/2000/svg" width="99" height="124" fill="none">
  <path fill="#fff" d="M83.47 58.417a32.172 32.172 0 0 0 4.039-4.224C91.583 49.063 94 42.73 94 35.896 94 18.903 79.067 5 60.816 5H18.414C12.33 5 7.352 9.978 7.352 16.061v43.693a44.223 44.223 0 0 1 5.862-6.382c6.686-6 15.433-10.36 25.294-12.282V31.015h21.387c4.562 0 8.295 3.733 8.295 8.296v.657c0 .964-.168 1.891-.475 2.754a8.37 8.37 0 0 1-3.83 4.51 51.54 51.54 0 0 0-13.97-1.907c-3.946 0-7.769.44-11.407 1.26-8.4 1.892-15.804 5.823-21.416 11.124-3.571 3.373-6.417 7.298-8.332 11.607C6.977 73.329 6 77.673 6 82.209c0 20.37 19.661 36.883 43.915 36.883 24.254 0 43.915-16.513 43.915-36.883 0-2.903-.4-5.728-1.156-8.437-1.603-5.755-4.81-10.989-9.204-15.355ZM49.915 97.625c-9.486 0-17.177-6.903-17.177-15.417 0-2.607.722-5.061 1.994-7.213 2.883-4.88 8.6-8.204 15.183-8.204s12.3 3.325 15.183 8.204c1.273 2.152 1.994 4.607 1.994 7.213 0 8.514-7.69 15.417-17.177 15.417Z"/>
</svg>
