<svg xmlns="http://www.w3.org/2000/svg">
  <defs>
    <symbol id="icon-instagram" viewBox="0 0 32 32">
      <path
        d="M24 32H8c-4.411 0-8-3.589-8-8V8c0-4.411 3.589-8 8-8h16c4.411 0 8 3.589 8 8v16c0 4.411-3.589 8-8 8zM8 .533C3.883.533.533 3.882.533 8v16c0 4.118 3.349 7.467 7.467 7.467h16c4.118 0 7.467-3.349 7.467-7.467V8c0-4.117-3.349-7.467-7.467-7.467H8z" />
      <path
        d="M19.11 24.021h-6.219a4.917 4.917 0 0 1-4.912-4.911v-6.219a4.918 4.918 0 0 1 4.912-4.912h6.22a4.917 4.917 0 0 1 4.911 4.912v6.22a4.916 4.916 0 0 1-4.911 4.911zM12.891 9.18a3.714 3.714 0 0 0-3.71 3.71v6.22a3.714 3.714 0 0 0 3.71 3.71h6.22a3.713 3.713 0 0 0 3.71-3.71v-6.22a3.714 3.714 0 0 0-3.71-3.71h-6.22z" />
      <path
        d="M16 20.058c-2.237 0-4.057-1.821-4.057-4.058s1.82-4.057 4.057-4.057A4.062 4.062 0 0 1 20.057 16 4.062 4.062 0 0 1 16 20.058zm0-6.886c-1.559 0-2.828 1.269-2.828 2.828s1.269 2.829 2.828 2.829c1.558 0 2.828-1.27 2.828-2.829s-1.27-2.828-2.828-2.828zm5.557-1.671a1.056 1.056 0 1 1-2.112 0 1.056 1.056 0 0 1 2.112 0z" />
    </symbol>
    <symbol id="icon-phone" viewBox="0 0 32 32">
      <path
        d="M18.877 23.179c-.325 0-.636-.07-.923-.21a19.27 19.27 0 0 1-8.918-8.911c-.406-.835-.214-1.862.478-2.553l1.778-1.778c.489-.487 1.341-.477 1.776.023l2.163 2.491c.41.47.37 1.2-.09 1.66l-.745.743a8.76 8.76 0 0 0 2.97 2.966l.746-.746c.442-.442 1.2-.485 1.655-.096l2.507 2.147c.247.212.39.511.402.841.013.346-.123.689-.374.939l-1.795 1.793a2.324 2.324 0 0 1-1.631.689zm-6.692-12.758a.2.2 0 0 0-.139.062l-1.779 1.778c-.371.37-.48.906-.272 1.333a18.196 18.196 0 0 0 8.423 8.416c.418.202.977.087 1.337-.273l1.795-1.793a.195.195 0 0 0 .062-.145.093.093 0 0 0-.031-.072l-2.505-2.146c-.048-.041-.146-.023-.209.039l-.872.872a.818.818 0 0 1-.591.248.843.843 0 0 1-.389-.097 9.86 9.86 0 0 1-3.639-3.629.827.827 0 0 1 .151-1.006l.86-.859c.07-.07.077-.164.038-.208l-2.163-2.49c-.017-.021-.043-.031-.077-.031z" />
      <path
        d="M24 32H8c-4.411 0-8-3.589-8-8V8c0-4.411 3.589-8 8-8h16c4.411 0 8 3.589 8 8v16c0 4.411-3.589 8-8 8zM8 .533C3.883.533.533 3.882.533 8v16c0 4.118 3.349 7.467 7.467 7.467h16c4.118 0 7.467-3.349 7.467-7.467V8c0-4.117-3.349-7.467-7.467-7.467H8z" />
    </symbol>
    <symbol id="logo" viewBox="0 0 24 32">
      <path
        d="M21.392 15.012a9.02 9.02 0 0 0 1.135-1.187c1.145-1.442 1.824-3.222 1.824-5.142C24.351 3.908 20.154 0 15.025 0H3.109A3.118 3.118 0 0 0 0 3.109v12.279a12.416 12.416 0 0 1 1.647-1.793c1.879-1.686 4.337-2.912 7.109-3.452V7.312h6.01a2.338 2.338 0 0 1 2.331 2.332v.185a2.348 2.348 0 0 1-1.21 2.041 14.497 14.497 0 0 0-3.926-.536 14.61 14.61 0 0 0-3.206.354c-2.36.532-4.441 1.636-6.019 3.126a10.2 10.2 0 0 0-2.341 3.262 8.89 8.89 0 0 0-.776 3.623c0 5.725 5.525 10.365 12.341 10.365s12.341-4.641 12.341-10.365c0-.816-.113-1.61-.325-2.371-.451-1.617-1.352-3.088-2.587-4.315zm-9.43 11.018c-2.666 0-4.827-1.94-4.827-4.333 0-.733.203-1.422.56-2.027.81-1.371 2.417-2.305 4.267-2.305s3.457.934 4.267 2.305c.358.605.56 1.295.56 2.027 0 2.393-2.161 4.333-4.828 4.333z" />
    </symbol>
    <symbol id="icon-phone-header" viewBox="0 0 32 32">
      <path
        d="M18.877 23.179c-.325 0-.635-.07-.922-.21a19.273 19.273 0 0 1-8.918-8.91c-.406-.835-.214-1.861.478-2.553l1.779-1.778c.487-.487 1.341-.477 1.775.023l2.163 2.491c.41.469.371 1.199-.09 1.66l-.745.743a8.779 8.779 0 0 0 2.97 2.966l.746-.746c.44-.441 1.199-.486 1.656-.096l2.506 2.146c.247.212.39.511.403.842.013.346-.123.689-.374.939l-1.795 1.793a2.33 2.33 0 0 1-1.633.688zm-6.691-12.758a.2.2 0 0 0-.139.062l-1.779 1.778c-.37.37-.479.906-.272 1.333a18.198 18.198 0 0 0 8.423 8.415c.42.203.977.087 1.337-.272l1.795-1.794a.195.195 0 0 0 .062-.145.097.097 0 0 0-.031-.072l-2.506-2.146c-.047-.041-.146-.023-.208.039l-.873.872a.824.824 0 0 1-.98.151 9.86 9.86 0 0 1-3.639-3.629.844.844 0 0 1-.097-.534.841.841 0 0 1 .247-.471l.86-.86c.07-.07.077-.164.039-.207l-2.163-2.49c-.017-.02-.043-.03-.077-.03z" />
      <path
        d="M24 32H8c-4.411 0-8-3.589-8-8V8c0-4.411 3.589-8 8-8h16c4.411 0 8 3.589 8 8v16c0 4.411-3.589 8-8 8zM8 .533C3.883.533.533 3.882.533 8v16c0 4.117 3.349 7.467 7.467 7.467h16c4.117 0 7.467-3.349 7.467-7.467V8c0-4.117-3.349-7.467-7.467-7.467H8z" />
    </symbol>
    <symbol id="icon-menu_open" viewBox="0 0 49 32">
      <path
        d="M48 2.909H1.455a1.456 1.456 0 0 1 0-2.91H48a1.455 1.455 0 0 1 0 2.91zM48 17.455H1.455a1.454 1.454 0 1 1 0-2.91H48a1.455 1.455 0 0 1 0 2.91zM48 32H1.455a1.454 1.454 0 1 1 0-2.91H48c.804 0 1.455.65 1.455 1.455S48.805 32 48 32z" />
    </symbol>
    <symbol id="icon-menu_close" viewBox="0 0 49 32">
      <path
        d="M1.456 32a1.455 1.455 0 0 1-.772-2.688L47.229.221a1.454 1.454 0 0 1 1.543 2.467L2.227 31.779c-.241.15-.508.221-.771.221z" />
      <path
        d="M47.999 32c-.263 0-.529-.071-.769-.221L.685 2.688A1.454 1.454 0 1 1 2.226.221l46.545 29.091A1.453 1.453 0 0 1 47.999 32z" />
    </symbol>
  </defs>
</svg>