<svg xmlns="http://www.w3.org/2000/svg">
    <defs>
        <symbol id="icon-instagram" viewBox="0 0 32 32">
            <path
                d="M24 32h-16c-4.411 0-8-3.589-8-8v-16c0-4.411 3.589-8 8-8h16c4.411 0 8 3.589 8 8v16c0 4.411-3.589 8-8 8zM8 0.533c-4.117 0-7.467 3.349-7.467 7.467v16c0 4.118 3.349 7.467 7.467 7.467h16c4.118 0 7.467-3.349 7.467-7.467v-16c0-4.117-3.349-7.467-7.467-7.467h-16z">
            </path>
            <path
                d="M19.11 24.021h-6.219c-2.708 0-4.912-2.203-4.912-4.911v-6.219c0-2.708 2.204-4.912 4.912-4.912h6.22c2.708 0 4.911 2.204 4.911 4.912v6.22c0 2.708-2.203 4.911-4.911 4.911zM12.891 9.18c-2.046 0-3.71 1.665-3.71 3.71v6.22c0 2.046 1.665 3.71 3.71 3.71h6.22c2.049-0.002 3.708-1.662 3.71-3.71v-6.22c-0.002-2.048-1.662-3.708-3.71-3.71h-6.22z">
            </path>
            <path
                d="M16 20.058c-2.237 0-4.057-1.821-4.057-4.058s1.82-4.057 4.057-4.057c2.237 0 4.057 1.821 4.057 4.057 0 2.237-1.82 4.058-4.057 4.058zM16 13.172c-1.559 0-2.828 1.269-2.828 2.828s1.269 2.829 2.828 2.829c1.558 0 2.828-1.27 2.828-2.829s-1.27-2.828-2.828-2.828zM21.557 11.501c0 0.583-0.473 1.056-1.055 1.056-0.585 0-1.055-0.473-1.055-1.056 0-0.584 0.475-1.057 1.055-1.057 0.582 0 1.055 0.473 1.055 1.057z">
            </path>
        </symbol>

        <symbol id="icon-phone" viewBox="0 0 32 32">
            <path
                d="M18.877 23.179c-0.325 0-0.636-0.070-0.923-0.21-3.877-1.876-7.044-5.040-8.918-8.911-0.406-0.835-0.214-1.862 0.478-2.553l1.778-1.778c0.489-0.487 1.341-0.477 1.776 0.023l2.163 2.491c0.41 0.47 0.37 1.2-0.090 1.66l-0.745 0.743c0.729 1.207 1.751 2.231 2.97 2.966l0.746-0.746c0.442-0.442 1.2-0.485 1.655-0.096l2.507 2.147c0.247 0.212 0.39 0.511 0.402 0.841 0.013 0.346-0.123 0.689-0.374 0.939l-1.795 1.793c-0.436 0.438-1.031 0.689-1.631 0.689zM12.185 10.421c-0.049 0-0.099 0.022-0.139 0.062l-1.779 1.778c-0.371 0.37-0.48 0.906-0.272 1.333 1.77 3.657 4.761 6.644 8.423 8.416 0.418 0.202 0.977 0.087 1.337-0.273l1.795-1.793c0.059-0.059 0.063-0.121 0.062-0.145-0.001-0.031-0.011-0.055-0.031-0.072l-2.505-2.146c-0.048-0.041-0.146-0.023-0.209 0.039l-0.872 0.872c-0.115 0.122-0.281 0.208-0.459 0.237-0.028 0.005-0.103 0.011-0.132 0.011-0.134 0-0.269-0.034-0.389-0.097-1.522-0.876-2.775-2.126-3.639-3.629-0.093-0.171-0.124-0.357-0.096-0.536s0.116-0.346 0.247-0.47l0.86-0.859c0.070-0.070 0.077-0.164 0.038-0.208l-2.163-2.49c-0.017-0.021-0.043-0.031-0.077-0.031z">
            </path>
            <path
                d="M24 32h-16c-4.411 0-8-3.589-8-8v-16c0-4.411 3.589-8 8-8h16c4.411 0 8 3.589 8 8v16c0 4.411-3.589 8-8 8zM8 0.533c-4.117 0-7.467 3.349-7.467 7.467v16c0 4.118 3.349 7.467 7.467 7.467h16c4.118 0 7.467-3.349 7.467-7.467v-16c0-4.117-3.349-7.467-7.467-7.467h-16z">
            </path>
        </symbol>
        <symbol id="logo" viewBox="0 0 24 32">
            <path
                d="M21.392 15.012a9.02 9.02 0 0 0 1.135-1.187c1.145-1.442 1.824-3.222 1.824-5.142C24.351 3.908 20.154 0 15.025 0H3.109A3.118 3.118 0 0 0 0 3.109v12.279a12.416 12.416 0 0 1 1.647-1.793c1.879-1.686 4.337-2.912 7.109-3.452V7.312h6.01a2.338 2.338 0 0 1 2.331 2.332v.185a2.348 2.348 0 0 1-1.21 2.041 14.497 14.497 0 0 0-3.926-.536 14.61 14.61 0 0 0-3.206.354c-2.36.532-4.441 1.636-6.019 3.126a10.2 10.2 0 0 0-2.341 3.262 8.89 8.89 0 0 0-.776 3.623c0 5.725 5.525 10.365 12.341 10.365s12.341-4.641 12.341-10.365c0-.816-.113-1.61-.325-2.371-.451-1.617-1.352-3.088-2.587-4.315zm-9.43 11.018c-2.666 0-4.827-1.94-4.827-4.333 0-.733.203-1.422.56-2.027.81-1.371 2.417-2.305 4.267-2.305s3.457.934 4.267 2.305c.358.605.56 1.295.56 2.027 0 2.393-2.161 4.333-4.828 4.333z" />
        </symbol>
        <symbol id="icon-phone-header" viewBox="0 0 32 32">
            <path
                d="M18.877 23.179c-.325 0-.635-.07-.922-.21a19.273 19.273 0 0 1-8.918-8.91c-.406-.835-.214-1.861.478-2.553l1.779-1.778c.487-.487 1.341-.477 1.775.023l2.163 2.491c.41.469.371 1.199-.09 1.66l-.745.743a8.779 8.779 0 0 0 2.97 2.966l.746-.746c.44-.441 1.199-.486 1.656-.096l2.506 2.146c.247.212.39.511.403.842.013.346-.123.689-.374.939l-1.795 1.793a2.33 2.33 0 0 1-1.633.688zm-6.691-12.758a.2.2 0 0 0-.139.062l-1.779 1.778c-.37.37-.479.906-.272 1.333a18.198 18.198 0 0 0 8.423 8.415c.42.203.977.087 1.337-.272l1.795-1.794a.195.195 0 0 0 .062-.145.097.097 0 0 0-.031-.072l-2.506-2.146c-.047-.041-.146-.023-.208.039l-.873.872a.824.824 0 0 1-.98.151 9.86 9.86 0 0 1-3.639-3.629.844.844 0 0 1-.097-.534.841.841 0 0 1 .247-.471l.86-.86c.07-.07.077-.164.039-.207l-2.163-2.49c-.017-.02-.043-.03-.077-.03z" />
            <path
                d="M24 32H8c-4.411 0-8-3.589-8-8V8c0-4.411 3.589-8 8-8h16c4.411 0 8 3.589 8 8v16c0 4.411-3.589 8-8 8zM8 .533C3.883.533.533 3.882.533 8v16c0 4.117 3.349 7.467 7.467 7.467h16c4.117 0 7.467-3.349 7.467-7.467V8c0-4.117-3.349-7.467-7.467-7.467H8z" />
        </symbol>
    </defs>
</svg>