<svg xmlns="http://www.w3.org/2000/svg">
    <defs>
        <symbol id="icon-intagram" viewBox="0 0 32 32">
            <path
                d="M21.831 31.04H10.17c-5.078 0-9.21-4.131-9.21-9.209V10.17C.96 5.092 5.092.96 10.17.96h11.662c5.078 0 9.208 4.132 9.208 9.21v11.662c0 5.078-4.131 9.208-9.209 9.208zM10.17 3.213c-3.836 0-6.956 3.121-6.956 6.957v11.662c0 3.836 3.121 6.957 6.956 6.957h11.662a6.965 6.965 0 0 0 6.957-6.957V10.17a6.965 6.965 0 0 0-6.957-6.957H10.17z" />
            <path
                d="M16 23.61c-4.196 0-7.608-3.414-7.608-7.61 0-4.195 3.413-7.608 7.608-7.608s7.608 3.414 7.608 7.608c0 4.196-3.412 7.61-7.608 7.61zm0-12.912c-2.923 0-5.302 2.379-5.302 5.302s2.379 5.303 5.302 5.303c2.922 0 5.302-2.38 5.302-5.303s-2.38-5.302-5.302-5.302zM26.419 7.564a1.981 1.981 0 1 1-3.962 0 1.981 1.981 0 0 1 3.962 0z" />
        </symbol>
        <symbol id="icon-phone" viewBox="0 0 32 32">
            <path
                d="M22.489 31.04c-.78 0-1.526-.171-2.218-.506A40.678 40.678 0 0 1 1.436 11.715C.464 9.718.916 7.27 2.56 5.628l3.693-3.691A3.291 3.291 0 0 1 8.592.959a3.11 3.11 0 0 1 2.352 1.062l4.491 5.172c1.085 1.246.99 3.171-.218 4.382l-1.162 1.159a17.511 17.511 0 0 0 5.198 5.187l1.164-1.164a3.342 3.342 0 0 1 2.34-.978c.748 0 1.471.264 2.029.745l5.204 4.456a3.118 3.118 0 0 1 1.076 2.244 3.314 3.314 0 0 1-.978 2.461l-3.727 3.725c-1.036 1.032-2.447 1.627-3.875 1.627zM8.54 4.726 5.096 8.167c-.553.554-.731 1.368-.432 1.981a37.084 37.084 0 0 0 17.17 17.156c.614.3 1.447.114 1.993-.431l3.474-3.473-4.552-3.897-1.604 1.604a2.404 2.404 0 0 1-1.336.684 2.445 2.445 0 0 1-1.516-.255 21.146 21.146 0 0 1-7.822-7.796c-.274-.506-.364-1.045-.282-1.562s.335-1.002.715-1.363l1.567-1.564-3.93-4.525z" />
        </symbol>
        <symbol id="logo" viewBox="0 0 24 32">
            <path
                d="M21.392 15.012a9.02 9.02 0 0 0 1.135-1.187c1.145-1.442 1.824-3.222 1.824-5.142C24.351 3.908 20.154 0 15.025 0H3.109A3.118 3.118 0 0 0 0 3.109v12.279a12.416 12.416 0 0 1 1.647-1.793c1.879-1.686 4.337-2.912 7.109-3.452V7.312h6.01a2.338 2.338 0 0 1 2.331 2.332v.185a2.348 2.348 0 0 1-1.21 2.041 14.497 14.497 0 0 0-3.926-.536 14.61 14.61 0 0 0-3.206.354c-2.36.532-4.441 1.636-6.019 3.126a10.2 10.2 0 0 0-2.341 3.262 8.89 8.89 0 0 0-.776 3.623c0 5.725 5.525 10.365 12.341 10.365s12.341-4.641 12.341-10.365c0-.816-.113-1.61-.325-2.371-.451-1.617-1.352-3.088-2.587-4.315zm-9.43 11.018c-2.666 0-4.827-1.94-4.827-4.333 0-.733.203-1.422.56-2.027.81-1.371 2.417-2.305 4.267-2.305s3.457.934 4.267 2.305c.358.605.56 1.295.56 2.027 0 2.393-2.161 4.333-4.828 4.333z" />
        </symbol>
    </defs>
</svg>