<svg xmlns="http://www.w3.org/2000/svg" xml:space="preserve" width="50" height="50">
  <radialGradient id="a" cx="-2.689" cy="-.874" r="86.695" gradientTransform="matrix(1 0 0 -1 -.015 49.7)" gradientUnits="userSpaceOnUse">
    <stop offset="0" style="stop-color:#f9ed41"/>
    <stop offset=".241" style="stop-color:#ff833d"/>
    <stop offset=".401" style="stop-color:#ee5568"/>
    <stop offset=".489" style="stop-color:#e7407b"/>
    <stop offset="1" style="stop-color:#0028ff"/>
  </radialGradient>
  <path fill="url(#a)" d="M34.111 48.5H15.89C7.956 48.5 1.5 42.046 1.5 34.111V15.89C1.5 7.956 7.956 1.5 15.89 1.5h18.222C42.046 1.5 48.5 7.956 48.5 15.89v18.222c0 7.934-6.454 14.388-14.389 14.388zM15.89 5.02c-5.994 0-10.869 4.876-10.869 10.87v18.222c0 5.993 4.876 10.87 10.869 10.87h18.222c5.993 0 10.87-4.877 10.87-10.87V15.89c0-5.994-4.877-10.87-10.87-10.87H15.89z"/>
  <radialGradient id="b" cx="-2.688" cy="-.875" r="86.693" gradientTransform="matrix(1 0 0 -1 -.015 49.7)" gradientUnits="userSpaceOnUse">
    <stop offset="0" style="stop-color:#f9ed41"/>
    <stop offset=".241" style="stop-color:#ff833d"/>
    <stop offset=".401" style="stop-color:#ee5568"/>
    <stop offset=".489" style="stop-color:#e7407b"/>
    <stop offset="1" style="stop-color:#0028ff"/>
  </radialGradient>
  <path fill="url(#b)" d="M25 36.89c-6.556 0-11.888-5.334-11.888-11.891 0-6.555 5.333-11.888 11.888-11.888 6.556 0 11.888 5.334 11.888 11.888 0 6.557-5.332 11.891-11.888 11.891zm0-20.175c-4.567 0-8.284 3.717-8.284 8.284s3.717 8.286 8.284 8.286c4.566 0 8.285-3.719 8.285-8.286 0-4.568-3.719-8.284-8.285-8.284z"/>
  <radialGradient id="c" cx="-2.68" cy="-.882" r="86.695" gradientTransform="matrix(1 0 0 -1 -.015 49.7)" gradientUnits="userSpaceOnUse">
    <stop offset="0" style="stop-color:#f9ed41"/>
    <stop offset=".241" style="stop-color:#ff833d"/>
    <stop offset=".401" style="stop-color:#ee5568"/>
    <stop offset=".489" style="stop-color:#e7407b"/>
    <stop offset="1" style="stop-color:#0028ff"/>
  </radialGradient>
  <circle cx="38.183" cy="11.818" r="3.096" fill="url(#c)"/>
</svg>
