<svg width="50" height="50" viewBox="0 0 50 50" fill="none" xmlns="http://www.w3.org/2000/svg">
<path d="M14.7823 0.8422C12.1974 0.962474 10.4501 1.37233 8.92993 1.96086L8.92575 1.96248L8.92574 1.96246C7.33954 2.56025 5.90276 3.4967 4.7155 4.70658L4.70886 4.71334L4.7088 4.71328C3.49806 5.90117 2.56084 7.33872 1.96243 8.92582L1.96088 8.92994L1.96086 8.92993C1.37137 10.4526 0.959045 12.2027 0.841689 14.7978C0.722674 17.4296 0.693359 18.2642 0.693359 25.0001C0.693359 31.7339 0.720428 32.5683 0.841668 35.2064L14.7823 0.8422ZM14.7823 0.8422H14.7844L14.7959 0.841671C17.4296 0.720429 18.2638 0.693359 25.0001 0.693359C31.7359 0.693359 32.5705 0.722674 35.2023 0.841689C37.7975 0.959045 39.5475 1.37137 41.0702 1.96088L41.074 1.9623C42.6594 2.56142 44.0976 3.49792 45.287 4.70898L45.287 4.70905L45.2937 4.71567C46.5044 5.90255 47.4384 7.33812 48.0353 8.9254L48.0352 8.92541L48.0372 8.93051C48.6287 10.4526 49.0389 12.2025 49.1585 14.7937C49.2797 17.4318 49.3068 18.2662 49.3068 25.0001C49.3068 31.7359 49.2774 32.5705 49.1584 35.2046C49.0411 37.7952 48.6288 39.545 48.0372 41.0674L48.0372 41.0673L48.0353 41.0725C47.4384 42.66 46.5027 44.0982 45.2932 45.2872L45.2932 45.2871L45.287 45.2934C44.0978 46.5042 42.6598 47.4384 41.0745 48.0354L41.0696 48.0372C39.5476 48.6287 37.7977 49.0388 35.2065 49.1584C35.2064 49.1584 35.2064 49.1585 35.2064 49.1585L35.2294 49.6579M14.7823 0.8422L0.841672 35.2065L0.3422 35.2294C0.463978 37.868 0.883437 39.6721 1.49458 41.2507C2.11772 42.9057 3.09435 44.4049 4.35637 45.6437C5.5963 46.905 7.09621 47.8808 8.75167 48.5033C10.3303 49.1167 12.1344 49.5384 14.7729 49.6579C17.4182 49.7774 18.2617 49.8068 25.0001 49.8068C31.7385 49.8068 32.5819 49.7797 35.2294 49.6579M35.2294 49.6579C37.868 49.5361 39.6721 49.1167 41.2507 48.5033M35.2294 49.6579L41.2507 48.5033M41.2507 48.5033C42.9037 47.8809 44.4034 46.9066 45.6437 45.6437L41.2507 48.5033ZM10.1873 5.19615L10.187 5.19626C8.9686 5.67127 8.08242 6.24272 7.1647 7.15989C6.29047 8.01111 5.61737 9.04683 5.19455 10.1914C4.83493 11.1163 4.42077 12.482 4.30793 14.9531C4.18787 17.5807 4.16308 18.3746 4.16308 25.0001C4.16308 31.6255 4.18787 32.4194 4.30793 35.047C4.42078 37.5182 4.83494 38.8838 5.19456 39.8088C5.61652 40.9505 6.28898 41.9871 7.16225 42.8379C8.01303 43.7111 9.0496 44.3836 10.1913 44.8055C11.1162 45.1651 12.4818 45.5793 14.9531 45.6922C17.5807 45.8123 18.3723 45.837 25.0001 45.837C31.6278 45.837 32.4194 45.8123 35.047 45.6922C37.5218 45.5792 38.8878 45.164 39.8128 44.804L39.8131 44.8039C41.0315 44.3289 41.9177 43.7574 42.8354 42.8403C43.7098 41.989 44.3832 40.9516 44.8055 39.8089C45.1651 38.8839 45.5793 37.5183 45.6922 35.047C45.8123 32.4194 45.837 31.6255 45.837 25.0001C45.837 18.3746 45.8123 17.5807 45.6922 14.9531C45.5792 12.4783 45.164 11.1123 44.804 10.1873L44.8039 10.187C44.3289 8.96863 43.7574 8.08246 42.8403 7.16476C41.989 6.29057 40.9533 5.61746 39.8087 5.19456C38.8838 4.83494 37.5182 4.42077 35.047 4.30793C32.4194 4.18787 31.6255 4.16308 25.0001 4.16308C18.3746 4.16308 17.5807 4.18787 14.9531 4.30793C12.4783 4.42094 11.1123 4.83617 10.1873 5.19615ZM21.6394 33.1089C23.5159 33.89 25.6053 33.9954 27.5509 33.4072C29.4964 32.8189 31.1774 31.5734 32.3067 29.8834C33.4359 28.1935 33.9435 26.1639 33.7426 24.1413C33.5417 22.1189 32.645 20.229 31.2056 18.7943C30.2879 17.8771 29.1782 17.1748 27.9565 16.738C26.7348 16.3012 25.4314 16.1407 24.1402 16.268C22.849 16.3954 21.6022 16.8074 20.4893 17.4745C19.3765 18.1416 18.4254 19.0471 17.7045 20.1259C16.9837 21.2047 16.511 22.4299 16.3204 23.7133C16.1299 24.9967 16.2263 26.3063 16.6027 27.548C16.9791 28.7897 17.6261 29.9325 18.4971 30.8941C19.368 31.8555 20.4412 32.6119 21.6394 33.1089ZM16.3375 16.3375C17.4751 15.1999 18.8256 14.2975 20.3119 13.6819C21.7982 13.0662 23.3913 12.7494 25.0001 12.7494C26.6088 12.7494 28.2019 13.0662 29.6882 13.6819C31.1745 14.2975 32.525 15.1999 33.6626 16.3375C34.8002 17.4751 35.7026 18.8256 36.3182 20.3119C36.9339 21.7982 37.2508 23.3913 37.2508 25.0001C37.2508 26.6088 36.9339 28.2019 36.3182 29.6882C35.7026 31.1745 34.8002 32.525 33.6626 33.6626C31.3652 35.9601 28.2491 37.2508 25.0001 37.2508C21.751 37.2508 18.635 35.9601 16.3375 33.6626C14.0401 31.3652 12.7494 28.2491 12.7494 25.0001C12.7494 21.751 14.0401 18.635 16.3375 16.3375ZM40.8118 12.9681C40.6763 13.276 40.4803 13.5537 40.2356 13.7845C39.7596 14.2336 39.1273 14.4794 38.473 14.4699C37.8187 14.4603 37.1939 14.1962 36.7312 13.7335C36.2685 13.2708 36.0044 12.6459 35.9948 11.9916C35.9853 11.3374 36.2311 10.7051 36.6801 10.2291C36.911 9.98436 37.1887 9.78842 37.4966 9.6529C37.8046 9.51737 38.1366 9.44501 38.473 9.44011C38.8095 9.43521 39.1435 9.49785 39.4552 9.62434C39.767 9.75083 40.0503 9.93859 40.2882 10.1765C40.5261 10.4144 40.7139 10.6977 40.8403 11.0094C40.9668 11.3212 41.0295 11.6552 41.0246 11.9916C41.0197 12.3281 40.9473 12.6601 40.8118 12.9681Z" fill="url(#paint0_linear_85_173)" stroke="url(#paint1_linear_85_173)"/>
<defs>
<linearGradient id="paint0_linear_85_173" x1="12.1557" y1="-6.64987" x2="22.9774" y2="62.2209" gradientUnits="userSpaceOnUse">
<stop stop-color="#28A2D7"/>
<stop offset="1" stop-color="#1A6D90"/>
</linearGradient>
<linearGradient id="paint1_linear_85_173" x1="12.1557" y1="-6.64987" x2="22.9774" y2="62.2209" gradientUnits="userSpaceOnUse">
<stop stop-color="#28A2D7"/>
<stop offset="1" stop-color="#1A6D90"/>
</linearGradient>
</defs>
</svg>
