<svg xmlns="http://www.w3.org/2000/svg" xml:space="preserve" width="50" height="50">
  <linearGradient id="a" x1="20.612" x2="29.621" y1="543.204" y2="600.67" gradientTransform="translate(-.03 -545.602)" gradientUnits="userSpaceOnUse">
    <stop offset="0" style="stop-color:#28a2d7"/>
    <stop offset="1" style="stop-color:#1a6d90"/>
  </linearGradient>
  <path fill="url(#a)" d="M35.139 48.5a7.886 7.886 0 0 1-3.465-.79C18.881 41.524 8.428 31.082 2.244 18.306c-1.518-3.12-.812-6.945 1.757-9.511l5.771-5.767A5.141 5.141 0 0 1 13.426 1.5a4.86 4.86 0 0 1 3.675 1.66l7.017 8.082c1.695 1.947 1.547 4.955-.341 6.847L21.962 19.9a27.383 27.383 0 0 0 8.122 8.105l1.818-1.818a5.22 5.22 0 0 1 3.657-1.528c1.168 0 2.298.413 3.171 1.164l8.132 6.962a4.872 4.872 0 0 1 1.682 3.507 5.175 5.175 0 0 1-1.528 3.845l-5.823 5.821c-1.618 1.613-3.824 2.542-6.054 2.542zM13.344 7.385l-5.381 5.377c-.864.865-1.142 2.138-.675 3.096 5.638 11.647 15.165 21.167 26.828 26.806.96.468 2.261.178 3.114-.674l5.428-5.426-7.113-6.089-2.507 2.507a3.752 3.752 0 0 1-2.087 1.068 3.82 3.82 0 0 1-2.369-.399A33.058 33.058 0 0 1 16.36 21.47c-.428-.79-.569-1.633-.441-2.441a3.77 3.77 0 0 1 1.117-2.13l2.448-2.444-6.14-7.07z"/>
</svg>
