<?xml version="1.0" encoding="utf-8"?>
<!-- Generator: Adobe Illustrator 16.0.3, SVG Export Plug-In . SVG Version: 6.00 Build 0)  -->
<!DOCTYPE svg PUBLIC "-//W3C//DTD SVG 1.1//EN" "http://www.w3.org/Graphics/SVG/1.1/DTD/svg11.dtd">
<svg version="1.1" id="Layer_1" xmlns="http://www.w3.org/2000/svg" xmlns:xlink="http://www.w3.org/1999/xlink" x="0px" y="0px"
	 width="50px" height="50px" viewBox="0 0 50 50" enable-background="new 0 0 50 50" xml:space="preserve">
<linearGradient id="SVGID_1_" gradientUnits="userSpaceOnUse" x1="20.6118" y1="543.2041" x2="29.6209" y2="600.6697" gradientTransform="matrix(1 0 0 1 -0.0303 -545.6016)">
	<stop  offset="0" style="stop-color:#28A2D7"/>
	<stop  offset="1" style="stop-color:#1A6D90"/>
</linearGradient>
<path fill="url(#SVGID_1_)" d="M35.139,48.5c-1.219,0-2.385-0.267-3.465-0.79C18.881,41.524,8.428,31.082,2.244,18.306
	c-1.518-3.12-0.812-6.945,1.757-9.511l5.771-5.767C10.758,2.042,12.056,1.5,13.426,1.5c1.418,0,2.759,0.605,3.675,1.66l7.017,8.082
	c1.695,1.947,1.547,4.955-0.341,6.847l-1.815,1.811c2.08,3.218,4.86,5.997,8.122,8.105l1.818-1.818
	c0.969-0.969,2.304-1.528,3.657-1.528c1.168,0,2.298,0.413,3.171,1.164l8.132,6.962c1.019,0.875,1.63,2.151,1.682,3.507
	c0.055,1.421-0.503,2.822-1.528,3.845l-5.823,5.821C39.575,47.571,37.369,48.5,35.139,48.5z M13.344,7.385l-5.381,5.377
	c-0.864,0.865-1.142,2.138-0.675,3.096c5.638,11.647,15.165,21.167,26.828,26.806c0.96,0.468,2.261,0.178,3.114-0.674l5.428-5.426
	l-7.113-6.089l-2.507,2.507c-0.523,0.544-1.278,0.94-2.087,1.068c-0.813,0.128-1.651-0.019-2.369-0.399
	c-5.118-2.938-9.32-7.138-12.222-12.181c-0.428-0.79-0.569-1.633-0.441-2.441c0.127-0.807,0.524-1.565,1.117-2.13l2.448-2.444
	L13.344,7.385z"/>
</svg>
