<svg width="50" height="50" viewBox="0 0 50 50" fill="none" xmlns="http://www.w3.org/2000/svg">
<path d="M21.859 12.2439L14.3489 3.59525C13.4832 2.59861 11.8959 2.60303 10.8903 3.60854L4.71442 9.7811C2.87632 11.6171 2.35019 14.3435 3.41354 16.5295C9.76614 29.6519 20.3739 40.2499 33.5181 46.6061C35.7069 47.667 38.4374 47.1421 40.2755 45.306L46.5091 39.0759C47.5192 38.0681 47.5214 36.4757 46.5135 35.612L37.8114 28.1593C36.9012 27.3797 35.4871 27.4815 34.5747 28.394L31.5468 31.4194C31.3917 31.5815 31.1877 31.6883 30.9659 31.7235C30.7441 31.7588 30.5169 31.7204 30.3191 31.6143C25.3697 28.7708 21.264 24.6693 18.4203 19.7276C18.3138 19.53 18.2752 19.3029 18.3105 19.0813C18.3458 18.8596 18.453 18.6557 18.6156 18.5006L21.6348 15.4863C22.5494 14.5694 22.6493 13.152 21.859 12.2417V12.2439Z" stroke="url(#paint0_linear_85_169)" stroke-width="6" stroke-linecap="round" stroke-linejoin="round"/>
<defs>
<linearGradient id="paint0_linear_85_169" x1="13.5742" y1="-3.259" x2="23.2156" y2="58.24" gradientUnits="userSpaceOnUse">
<stop stop-color="#28A2D7"/>
<stop offset="1" stop-color="#1A6D90"/>
</linearGradient>
</defs>
</svg>
